<mxfile host="app.diagrams.net" agent="Mozilla/5.0 (Macintosh; Intel Mac OS X 10_15_7) AppleWebKit/537.36 (KHTML, like Gecko) Chrome/136.0.0.0 Safari/537.36" version="26.2.14">
  <diagram name="Page-1" id="jxQhiF9UOhReO_eNYRPK">
    <mxGraphModel dx="1426" dy="829" grid="1" gridSize="10" guides="1" tooltips="1" connect="1" arrows="1" fold="1" page="1" pageScale="1" pageWidth="827" pageHeight="1169" math="0" shadow="0">
      <root>
        <mxCell id="0" />
        <mxCell id="1" parent="0" />
        <mxCell id="DYZETwlnzFq6jeJ9canz-1" value="Client Requests" style="rounded=0;whiteSpace=wrap;html=1;" vertex="1" parent="1">
          <mxGeometry x="259" y="80" width="310" height="60" as="geometry" />
        </mxCell>
        <mxCell id="DYZETwlnzFq6jeJ9canz-6" value="&lt;h1 style=&quot;margin-top: 0px;&quot;&gt;&lt;br/&gt;&lt;br/&gt;&lt;br/&gt;&lt;br/&gt;&lt;br/&gt;&lt;br/&gt;&lt;br/&gt;&lt;br/&gt;&lt;p class=&quot;p1&quot;&gt;&lt;b&gt;Scalability - Vertical vs Horizontal + Load Balancer&lt;/b&gt;&lt;/p&gt;&lt;/h1&gt;&lt;p&gt;&lt;br&gt;&lt;/p&gt;" style="text;html=1;whiteSpace=wrap;overflow=hidden;rounded=0;" vertex="1" parent="1">
          <mxGeometry x="160" width="480" height="120" as="geometry" />
        </mxCell>
        <mxCell id="DYZETwlnzFq6jeJ9canz-7" value="&lt;h1 style=&quot;margin-top: 0px;&quot;&gt;&lt;br/&gt;&lt;br/&gt;&lt;br/&gt;&lt;br/&gt;&lt;br/&gt;&lt;br/&gt;&lt;br/&gt;&lt;br/&gt;&lt;p class=&quot;p1&quot;&gt;&lt;b&gt;Scalability - Vertical vs Horizontal + Load Balancer&lt;/b&gt;&lt;/p&gt;&lt;/h1&gt;&lt;p&gt;&lt;br&gt;&lt;/p&gt;" style="text;html=1;whiteSpace=wrap;overflow=hidden;rounded=0;" vertex="1" parent="1">
          <mxGeometry x="170" y="10" width="480" height="120" as="geometry" />
        </mxCell>
        <mxCell id="DYZETwlnzFq6jeJ9canz-10" value="&lt;b&gt;Scalability - Vertical vs Horizontal + Load Balancer&lt;/b&gt;" style="text;whiteSpace=wrap;html=1;fontSize=21;align=center;" vertex="1" parent="1">
          <mxGeometry x="145" y="20" width="530" height="45" as="geometry" />
        </mxCell>
        <mxCell id="DYZETwlnzFq6jeJ9canz-11" value="Load Balancer" style="rounded=1;whiteSpace=wrap;html=1;" vertex="1" parent="1">
          <mxGeometry x="290" y="230" width="240" height="60" as="geometry" />
        </mxCell>
        <mxCell id="DYZETwlnzFq6jeJ9canz-12" value="App Server 1&lt;div&gt;(RAM:8GB , CPU :4 )&lt;/div&gt;" style="shape=cube;whiteSpace=wrap;html=1;boundedLbl=1;backgroundOutline=1;darkOpacity=0.05;darkOpacity2=0.1;" vertex="1" parent="1">
          <mxGeometry x="60" y="380" width="240" height="80" as="geometry" />
        </mxCell>
        <mxCell id="DYZETwlnzFq6jeJ9canz-13" value="App Server 2&lt;div&gt;(RAM:8GB , CPU :4 )&lt;/div&gt;" style="shape=cube;whiteSpace=wrap;html=1;boundedLbl=1;backgroundOutline=1;darkOpacity=0.05;darkOpacity2=0.1;" vertex="1" parent="1">
          <mxGeometry x="435" y="380" width="240" height="80" as="geometry" />
        </mxCell>
        <mxCell id="DYZETwlnzFq6jeJ9canz-14" value="← Add &lt;span class=&quot;s1&quot;&gt;more&lt;/span&gt; &lt;span class=&quot;s1&quot;&gt;servers&lt;/span&gt; = **Horizontal Scaling** →&#xa;↑ Increase CPU/RAM = **Vertical Scaling** ↑" style="text;whiteSpace=wrap;html=1;" vertex="1" parent="1">
          <mxGeometry x="80" y="530" width="340" height="50" as="geometry" />
        </mxCell>
        <mxCell id="DYZETwlnzFq6jeJ9canz-15" value="" style="endArrow=classic;html=1;rounded=0;exitX=0.5;exitY=1;exitDx=0;exitDy=0;" edge="1" parent="1" source="DYZETwlnzFq6jeJ9canz-1">
          <mxGeometry width="50" height="50" relative="1" as="geometry">
            <mxPoint x="390" y="400" as="sourcePoint" />
            <mxPoint x="414" y="220" as="targetPoint" />
          </mxGeometry>
        </mxCell>
        <mxCell id="DYZETwlnzFq6jeJ9canz-16" value="" style="endArrow=none;html=1;rounded=0;entryX=0.5;entryY=1;entryDx=0;entryDy=0;" edge="1" parent="1" target="DYZETwlnzFq6jeJ9canz-11">
          <mxGeometry width="50" height="50" relative="1" as="geometry">
            <mxPoint x="410" y="330" as="sourcePoint" />
            <mxPoint x="440" y="350" as="targetPoint" />
          </mxGeometry>
        </mxCell>
        <mxCell id="DYZETwlnzFq6jeJ9canz-17" value="" style="shape=link;html=1;rounded=0;" edge="1" parent="1">
          <mxGeometry width="100" relative="1" as="geometry">
            <mxPoint x="200" y="330" as="sourcePoint" />
            <mxPoint x="550" y="330" as="targetPoint" />
            <Array as="points">
              <mxPoint x="400" y="330" />
            </Array>
          </mxGeometry>
        </mxCell>
        <mxCell id="DYZETwlnzFq6jeJ9canz-18" value="" style="endArrow=classic;html=1;rounded=0;" edge="1" parent="1">
          <mxGeometry width="50" height="50" relative="1" as="geometry">
            <mxPoint x="550" y="330" as="sourcePoint" />
            <mxPoint x="550" y="380" as="targetPoint" />
          </mxGeometry>
        </mxCell>
        <mxCell id="DYZETwlnzFq6jeJ9canz-19" value="" style="endArrow=classic;html=1;rounded=0;" edge="1" parent="1">
          <mxGeometry width="50" height="50" relative="1" as="geometry">
            <mxPoint x="200" y="330" as="sourcePoint" />
            <mxPoint x="200" y="380" as="targetPoint" />
          </mxGeometry>
        </mxCell>
        <mxCell id="DYZETwlnzFq6jeJ9canz-21" value="Actor" style="shape=umlActor;verticalLabelPosition=bottom;verticalAlign=top;html=1;outlineConnect=0;" vertex="1" parent="1">
          <mxGeometry x="330" y="670" width="30" height="60" as="geometry" />
        </mxCell>
        <mxCell id="DYZETwlnzFq6jeJ9canz-22" value="Crafted by - Prakash Karuppusamy&amp;nbsp;" style="shape=parallelogram;perimeter=parallelogramPerimeter;whiteSpace=wrap;html=1;fixedSize=1;" vertex="1" parent="1">
          <mxGeometry x="370" y="670" width="400" height="60" as="geometry" />
        </mxCell>
      </root>
    </mxGraphModel>
  </diagram>
</mxfile>
